<?xml version="1.0" encoding="UTF-8"?>
<svg id="Layer_1" xmlns="http://www.w3.org/2000/svg" version="1.1" viewBox="0 0 90 90">
  <!-- Generator: Adobe Illustrator 29.8.1, SVG Export Plug-In . SVG Version: 2.1.1 Build 2)  -->
  <defs>
    <style>
      .st0 {
        fill: #4269b2;
      }

      .st1 {
        fill: #fff;
      }
    </style>
  </defs>
  <g id="Logo">
    <path id="Initiator" class="st0" d="M88.7,45C88.7,20.7,69,1,44.7,1S.7,20.7.7,45s14.2,37.9,33.4,42.7v-29.3h-9.1v-13.4h9.1v-5.8c0-15,6.8-21.9,21.5-21.9s7.6.5,9.6,1.1v12.2c-1-.1-2.8-.2-5.1-.2-7.2,0-10,2.7-10,9.8v4.8h14.4l-2.5,13.4h-11.9v30.2c21.8-2.6,38.7-21.2,38.7-43.7Z"/>
    <path id="F" class="st1" d="M61.9,58.4l2.5-13.4h-14.4v-4.8c0-7.1,2.8-9.8,10-9.8s4,0,5.1.2v-12.2c-2-.5-6.8-1.1-9.6-1.1-14.7,0-21.5,6.9-21.5,21.9v5.8h-9.1v13.4h9.1v29.3c3.4.8,7,1.3,10.6,1.3s3.6-.1,5.3-.3v-30.2h11.9Z"/>
  </g>
</svg>