<?xml version="1.0" encoding="UTF-8"?>
<svg id="Layer_1" xmlns="http://www.w3.org/2000/svg" version="1.1" viewBox="0 0 337 90">
  <!-- Generator: Adobe Illustrator 29.8.1, SVG Export Plug-In . SVG Version: 2.1.1 Build 2)  -->
  <defs>
    <style>
      .st0 {
        fill: #ffd451;
      }

      .st1 {
        fill: #83878a;
      }

      .st2 {
        fill: #f1ae1d;
      }
    </style>
  </defs>
  <path class="st1" d="M111.8.8c-7.1,0-13.4.6-19.8,1.4v85.6h9.4v-30.6c3,.2,6.8.5,9.8.5,21.2,0,33.9-12.2,33.9-29.5S134.1.8,111.8.8M111.8,49.5c-3.3,0-7.4-.4-10.4-.7V10.2c3.1-.7,7.8-.9,11.8-.9,14.3,0,21.7,9.6,21.7,19.7s-7,20.5-23.1,20.5M213.1,46.6v-8.3h-8.8v49.5h9.3v-33.9c3.4-5,10-7.6,17.2-7.6v-9.1c-6.5,0-13,3.1-17.7,9.2M168,37.4c-15.1,0-25.1,11.6-25.1,25.7s10,25.7,25.1,25.7,25-11.6,25-25.7-9.9-25.7-25-25.7M168,81.3c-9.6,0-15.9-7.3-15.9-18.2s6.4-18.2,15.9-18.2,15.8,7.3,15.8,18.2-6.4,18.2-15.8,18.2M318,37.4c-6.5,0-12.6,3.1-17.8,8.4V1.4h-9.3v86.5h9.3v-34.7c3.7-4.1,9.9-8,15.5-8s10.4,3.9,10.4,11.6v31.1h9.3v-33.6c0-9.9-5.9-16.9-17.3-16.9M262.1,45.4c5.1,0,9.9,1.8,13.9,4.1l3.8-7.1c-4.5-2.8-10.7-5.1-16.9-5.1-15.7,0-26.8,11.7-26.8,26s11.1,25.5,26.8,25.5,12.4-2.2,16.9-5.1l-3.2-7.1c-4,2.4-8.8,4.1-13.9,4.1-9.1,0-17.6-6.7-17.6-17.5s7.3-17.9,17-17.9"/>
  <polygon class="st0" points="1.2 36 1.2 59.1 36.2 35.8 36.2 12.6 1.2 36"/>
  <polygon class="st2" points="71.3 36 71.3 59.1 36.2 35.8 36.2 12.6 71.3 36"/>
</svg>