<?xml version="1.0" encoding="UTF-8"?>
<svg id="Layer_1" xmlns="http://www.w3.org/2000/svg" version="1.1" viewBox="0 0 227.5 87.4">
  <!-- Generator: Adobe Illustrator 29.8.1, SVG Export Plug-In . SVG Version: 2.1.1 Build 2)  -->
  <defs>
    <style>
      .st0 {
        fill: #ee3029;
      }

      .st1, .st2 {
        fill: #020202;
      }

      .st2 {
        fill-rule: evenodd;
      }
    </style>
  </defs>
  <g id="yelp">
    <path class="st0" d="M183.8,51.1l3.6-.9h.4c1.1-.2,2-.9,2.5-2,.5-.9.7-2,.4-3,0-.4-.4-1.1-.7-1.3-.4-.5-.9-1.1-1.6-1.3l-2.1-1.1-4.1-1.4c-2.3-.9-4.5-1.6-6.8-2.5-1.4-.5-2.7-1.1-3.9-1.3-.2,0-.4,0-.7-.2-1.3-.4-2.1-.5-3-.5s-1.1,0-1.6.4c-.5.2-1.1.5-1.3.9-.2.2-.4.4-.5.7,0,.2-.4.4-.4.7s-.2.5-.4.7c-.7,2.1-1.1,4.5-1.1,6.8s0,4.8,1.3,6.6c.4.4.7.9,1.1,1.3.7.5,1.6.7,2.5.7s2.5-.2,3.9-.5l12.3-2.7h.4v-.2ZM224.7,31.8c-1.1-2.1-2.3-3.9-3.9-5.7-.2-.2-.4-.4-.7-.5-.2-.2-.4-.4-.7-.4s-.5-.2-.7-.4c-.5-.2-1.1-.4-1.6-.2-.5,0-1.1.2-1.6.4-.7.4-1.4.9-2.5,2l-.4.4c-.9.7-1.8,1.8-2.9,2.9-1.6,1.8-3.4,3.4-5,5.2l-3,3c-.5.5-1.1,1.3-1.4,1.8s-.7,1.3-.7,1.8v1.6c.2,1.1.9,2,1.8,2.5s2,.7,3,.5h.4l15.9-3.6c1.3-.4,2.5-.5,3.6-1.3.7-.4,1.4-.9,2-1.8.2-.4.4-1.1.4-1.6.2-2.1-.9-4.6-1.8-6.6h0ZM196.3,38.4c1.1-1.4,1.1-3.6,1.3-5.4l1.1-17.7c0-2.1.4-4.5.2-6.6,0-2,0-3.9-1.3-5.5-2.1-2.7-6.6-2.5-9.5-2.1-.9,0-2,.4-2.7.5s-1.8.4-2.7.7c-2.9,1.1-7,2.7-7.7,5.9-.4,2,.5,3.8,1.3,5.5.9,2.1,2.1,3.9,3,5.9l8.6,15.6c.9,1.6,1.8,3.4,3.4,4.3h.4c.7.4,1.6.4,2.3,0,.7-.2,1.3-.5,2-1.1h.2c0-.2.4-.4.4-.4v.4h-.2ZM194.9,54.1c-.4-.7-1.1-1.1-2-1.3s-1.6-.2-2.3,0c-.2,0-.4,0-.5.2-.2,0-.4.4-.7.4-.7.4-1.3,1.1-1.8,1.8,0,0-.2.4-.4.5l-2.5,3.6-4.3,5.9c-.9,1.3-1.8,2.5-2.3,3.4,0,0-.2.4-.4.5-.7,1.3-1.3,2-1.4,2.7,0,.5-.2,1.1,0,1.6,0,.5.2,1.1.5,1.6,0,0,.4.4.4.7.2,0,.4.4.5.5s.4.4.7.5c1.8,1.3,3.6,2.1,5.7,2.7,1.6.5,3.4.9,5.2,1.1h2.5c.5,0,1.1-.4,1.4-.9.4-.4.7-.7.9-1.3.4-.7.4-1.6.7-3v-.7c0-1.1,0-2.5.2-4.1,0-2.5.2-4.8.4-7.3v-7.3c0-.4-.4-.9-.5-1.3h.2v-.4l-.2-.2ZM223.8,60.9c-.5-.5-1.3-1.3-2.5-2-.2,0-.4,0-.5-.4-1.1-.5-2.1-1.3-3.6-2-2.1-1.3-4.3-2.3-6.6-3.4l-3.9-2c-.2,0-.4-.2-.5-.4-.7-.4-1.6-.7-2.3-.9h-1.4c-.7,0-1.4.4-2,1.1s-.9,1.3-1.1,2v1.4c.2,1.1.7,2,1.1,2.9l2.1,3.9c1.1,2.1,2.3,4.3,3.4,6.4.7,1.4,1.4,2.5,2,3.6,0,0,.2.4.4.5.7,1.3,1.3,2,2,2.5.4.4.9.7,1.3.7h3.2c.4,0,.5,0,.7-.4,1.6-.9,3-2,4.3-3.2,1.6-1.6,2.9-3,3.9-5,0,0,.2-.5.4-.7,0,0,.2-.5.2-.7v-.9c0-.5,0-1.1-.2-1.6s-.4-1.1-.7-1.3c0,0,.5-.4.5-.4Z"/>
    <path class="st2" d="M91.5,23.6c0-3,2.5-5.7,5.7-5.7s5.5,2.5,5.7,5.7v44.7c0,3-2.5,5.7-5.7,5.7s-5.7-2.5-5.7-5.7V23.6ZM86.1,51.3c0,.9,0,2.5-1.4,3.8-1.3,1.3-3,1.6-3.9,1.6h-24.3c.4,1.1,1.1,2.7,2.7,4.3,1.1.9,2,1.4,2.3,1.6.4.4,2.1,1.3,4.3,1.3s4.3-.7,6.1-1.6c1.3-.7,2.7-1.4,4.3-1.8,1.4,0,3,0,4.1,1.1,1.3,1.1,2,2.9,1.3,4.5-.5,2-2.1,3.6-3.9,4.6-1.1.5-2.1,1.1-3,1.4-1.3.4-2.7.9-4.3,1.1s-2.9.4-4.3,0h-2.1c-.7,0-1.6,0-2.3-.4-1.3,0-2.5-.7-3.6-1.3-1.1-.4-2.1-1.1-3.2-1.8s-2-1.6-2.9-2.5-1.6-2-2.3-2.9c-2.5-3.6-3.6-8-3.4-12.5,0-4.3,1.6-8.6,4.3-12,.4-.4.5-.7.9-1.1s0-.4.4-.4c3.2-3.9,7.3-5,9.1-5.7,5-1.4,9.1-.5,10.9,0,.9.2,5.7,1.6,9.3,5.7,0,.2.7.7,1.3,1.6,2.3,3.2,3,6.1,3.4,7.2,0,1.1.5,2.3.5,3.9v.2ZM60,43.9c-2.5,2.1-3.4,4.8-3.4,5.7h19.3c0-.7-.9-3.6-3.6-5.7s-5.4-2.1-6.3-2.1-3.6,0-6.3,2.1h.2ZM133.9,32.1c-5,0-9.7,2.1-12.9,5.9,0-3-2.7-5.5-5.7-5.5s-5.7,2.5-5.7,5.7v42.7c0,3,2.5,5.7,5.7,5.7s5.7-2.5,5.7-5.7v-13.2c3.4,3.6,7.9,5.9,12.9,5.9,10.2,0,18.4-9.1,18.4-20.7s-8.2-20.7-18.4-20.7h0ZM131.5,64.3c-5.7,0-10.6-5-10.6-11.3s4.6-11.3,10.6-11.3,10.6,5,10.6,11.3-4.8,11.3-10.6,11.3ZM37.5,55.9l-2,4.1c-.9,1.8-1.6,3.6-2.5,5.4,0,.5-.5,1.1-.7,1.6-3.6,7.9-7.7,17.3-17,19.3-4.5,1.1-11.3-.4-13.6-4.5-2.5-4.3,1.3-9.1,5.9-8,.7,0,1.4.5,2.1.9,1.3.7,2.5,1.3,3.9,1.1s2.1-1.1,3-2.3c1.4-1.6,2.1-3.4,2.3-4.5-1.1-2.3-2.1-4.3-3-5.9-.5-1.1-1.1-2-1.4-2.7-.7-1.6-1.4-2.7-2-3.6-1.4-2.7-1.6-3-2.3-4.3-1.3-2.7-2.9-5.2-4.3-7.7-1.6-2.7-3.4-5.9-2-9.1,1.1-2.7,3.9-3.9,6.6-3,2.9.9,4.1,3.6,5.4,6.1,0,.4.4.9.7,1.3l5.7,11.3c0,.4.4.9.7,1.6,0,.5.5,1.3.9,2,0,.4.4.7.4,1.1s.4.7.4,1.1l2.7-6.4,2.7-6.4s0-.5.5-1.3c0-.5.5-1.3,1.1-2.1,0-.4,0-.5.4-.9,1.1-2.7,2.5-6.3,5.7-7.2,2.1-.7,4.8.2,5.9,2.1.7.9.9,2,1.1,3,0,2.3-1.1,4.8-2.1,7.2,0,.5-.4,1.1-.7,1.6,0,.7-1.1,2.5-2.3,5.2-.4,1.1-.9,2-1.3,3,0,.5-.4,1.1-.7,1.6v-.5h-.2Z"/>
    <path class="st1" d="M159.1,71.7h.7v-.7h-.9v1.1-.4h.2ZM160.9,71.1v.5l-.4.4.9,1.6h-.7l-.7-1.3h-.5v1.3h-.5v-3.4h2.1c.4,0,.4.4.4.7h-.4l-.2.2ZM156.8,71.8c0-.5,0-1.1.4-1.4,0-.4.7-.7,1.1-1.1.4,0,.9-.4,1.4-.4s1.1,0,1.4.4c.4,0,.7.7,1.1,1.1,0,.4.4.9.4,1.4s0,1.1-.4,1.4-.5.7-1.1,1.1c-.4,0-1.1.4-1.4.4s-1.1,0-1.4-.4c-.4,0-.7-.7-1.1-1.1,0-.4-.4-.9-.4-1.4ZM157.1,71.8c0,.4,0,.9.4,1.3,0,.4.5.7.9.9s.7.4,1.3.4.9,0,1.3-.4c.4,0,.7-.5.9-.9s.4-.7.4-1.3,0-.9-.4-1.3c0-.4-.5-.7-.9-.9s-.7-.4-1.3-.4-.9,0-1.3.4c-.4,0-.7.5-.9.9s-.4.7-.4,1.3Z"/>
    <path class="st1" d="M159.1,71.7h.7v-.7h-.9v1.1-.4h.2ZM160.9,71.1v.5l-.4.4.9,1.6h-.7l-.7-1.3h-.5v1.3h-.5v-3.4h2.1c.4,0,.4.4.4.7h-.4l-.2.2ZM156.8,71.8c0-.5,0-1.1.4-1.4,0-.4.7-.7,1.1-1.1.4,0,.9-.4,1.4-.4s1.1,0,1.4.4c.4,0,.7.7,1.1,1.1,0,.4.4.9.4,1.4s0,1.1-.4,1.4-.5.7-1.1,1.1c-.4,0-1.1.4-1.4.4s-1.1,0-1.4-.4c-.4,0-.7-.7-1.1-1.1,0-.4-.4-.9-.4-1.4ZM157.1,71.8c0,.4,0,.9.4,1.3,0,.4.5.7.9.9s.7.4,1.3.4.9,0,1.3-.4c.4,0,.7-.5.9-.9s.4-.7.4-1.3,0-.9-.4-1.3c0-.4-.5-.7-.9-.9s-.7-.4-1.3-.4-.9,0-1.3.4c-.4,0-.7.5-.9.9s-.4.7-.4,1.3Z"/>
  </g>
</svg>