<?xml version="1.0" encoding="UTF-8"?>
<svg id="Layer_1" xmlns="http://www.w3.org/2000/svg" version="1.1" viewBox="0 0 512 137.2">
  <!-- Generator: Adobe Illustrator 29.8.1, SVG Export Plug-In . SVG Version: 2.1.1 Build 2)  -->
  <defs>
    <style>
      .st0 {
        fill: #231f20;
      }

      .st1 {
        fill: #ccc;
      }

      .st2, .st3 {
        isolation: isolate;
      }

      .st3 {
        fill: #282827;
        font-family: ArialMT, Arial;
        font-size: 12.6px;
      }

      .st4 {
        fill: #272626;
      }

      .st5 {
        fill: #4bb74e;
      }
    </style>
  </defs>
  <g>
    <polygon class="st5" points="68.7 105.5 29.2 62.5 41 51.7 68.1 81 129.1 8.5 141.4 19 68.7 105.5"/>
    <circle class="st1" cx="67.3" cy="49.3" r="12.2"/>
    <path class="st4" d="M117.1,58.4c.6,3.2,1,6.5,1,9.9,0,27.7-22.5,50.2-50.2,50.2s-50.2-22.5-50.2-50.2,22.5-50.2,50.2-50.2,24.4,4.8,33.2,12.6l10.7-12.5C100.1,8,84.8,1.7,67.9,1.7,31.1,1.7,1.3,31.5,1.3,68.3s29.8,66.6,66.6,66.6,66.6-29.8,66.6-66.6-1.7-17.1-4.7-24.7l-12.7,14.8Z"/>
  </g>
  <g>
    <path class="st0" d="M320.3,60.8V13.8h23.5c10.6,0,16.3,7.1,16.3,15.6s-5.8,15.6-16.3,15.6h-11.4v15.8h-12.1ZM347.9,29.5c0-3.2-2.6-5.1-5.8-5.1h-9.6v10.1h9.6c3.2,0,5.8-1.8,5.8-5Z"/>
    <path class="st0" d="M364.2,60.8V13.8h34.4v10.6h-22.3v7.3h21.8v10.6h-21.8v8h22.3v10.6h-34.4Z"/>
    <path class="st0" d="M216.8,60.8l-10.4-37.9-10.4,37.9h-6.3l-13.4-47h6.5l10.4,39.2,10.8-39.2h4.9l10.8,39.2,10.4-39.2h6.5l-13.5,47h-6.3Z"/>
    <path class="st0" d="M241.7,60.8V13.8h30.8v5.2h-24.9v15.1h24.4v5.2h-24.4v16.2h24.9v5.2h-30.8Z"/>
    <path class="st0" d="M275.7,54.2l6.4-9.4c3.4,3.4,8.6,6.2,15.1,6.2s6.6-1.4,6.6-3.7c0-6.2-26.6-1.1-26.6-19.2s6.6-14.9,18.7-14.9,14.1,2.3,19.1,6.5l-6.6,9.1c-3.9-3.3-9.1-4.9-13.7-4.9s-5.1,1.2-5.1,3.2c0,5.8,26.6,1.4,26.6,18.9s-7,15.7-19.6,15.7-16.1-3-20.8-7.5Z"/>
    <path class="st0" d="M438.3,60.8l-2.3-6.8h-18.5l-2.3,6.8h-13.7l17.7-47h15.3l17.7,47h-13.7ZM426.7,25.8l-6,17.7h11.9l-5.9-17.7Z"/>
    <path class="st0" d="M482.7,60.8l-12.3-17.7-3.2,3.9v13.7h-12.1V13.8h12.1v19.3l14.4-19.3h14.9l-18.2,22,19.2,25h-14.9Z"/>
  </g>
  <g class="st2">
    <g class="st2">
      <text class="st3" transform="translate(501 15.1)"><tspan x="0" y="0">®</tspan></text>
    </g>
  </g>
  <g>
    <path class="st0" d="M195.3,122.7l-18.9-46.9h6.7l15.8,40.5,15.8-40.5h6.7l-18.9,46.9h-7.3Z"/>
    <path class="st0" d="M227.6,122.7v-46.9h30.8v5.2h-24.9v15.1h24.4v5.2h-24.4v16.2h24.9v5.2h-30.8Z"/>
    <path class="st0" d="M294.8,122.7l-11.9-18.7h-9.4v18.7h-5.8v-46.9h18.9c8.6,0,14.8,5.5,14.8,14.1s-5.8,13.1-12.2,13.7l12.7,19.1h-6.9ZM295.2,89.9c0-5.3-3.9-8.9-9.4-8.9h-12.3v17.9h12.3c5.6,0,9.4-3.7,9.4-9Z"/>
    <path class="st0" d="M310.5,122.7v-46.9h5.8v46.9h-5.8Z"/>
    <path class="st0" d="M327.3,122.7v-46.9h30.8v5.2h-24.9v15.1h24.4v5.2h-24.4v21.4h-5.8Z"/>
    <path class="st0" d="M379.7,122.7v-19.8l-18.5-27.1h6.8l14.6,21.8,14.6-21.8h6.8l-18.4,27.1v19.8h-5.8Z"/>
  </g>
</svg>