<?xml version="1.0" encoding="UTF-8"?>
<svg id="Layer_1" xmlns="http://www.w3.org/2000/svg" version="1.1" viewBox="0 0 393.8 90">
  <!-- Generator: Adobe Illustrator 29.8.1, SVG Export Plug-In . SVG Version: 2.1.1 Build 2)  -->
  <defs>
    <style>
      .st0 {
        fill: #020202;
      }

      .st1 {
        fill: #54b848;
      }
    </style>
  </defs>
  <g id="houzz">
    <g>
      <path class="st0" d="M223.5,45.4c-2.4-2.4-5.1-4.3-8.4-5.5-3.1-1.4-6.7-2-10.4-2s-7.3.8-10.4,2c-3.1,1.4-6.1,3.1-8.4,5.5-2.4,2.4-4.3,5.1-5.5,8.4-1.4,3.1-2,6.7-2,10s.8,7.1,2,10.2,3.1,6.1,5.5,8.4,5.1,4.3,8.4,5.5,6.7,2,10.4,2,7.3-.8,10.4-2c3.1-1.4,6.1-3.1,8.4-5.5,2.4-2.4,4.3-5.1,5.5-8.4,1.4-3.1,2-6.7,2-10.2s-.8-7.1-2-10c-1.4-3.1-3.1-6.1-5.5-8.4ZM218.6,70.3c-.8,2-1.6,3.5-2.9,4.9s-2.8,2.6-4.7,3.1c-1.8.8-3.9,1.2-6.1,1.2s-4.3-.4-6.1-1.2c-1.8-.8-3.3-2-4.7-3.1-1.4-1.4-2.2-2.9-2.9-4.9-.8-2-1-4.1-1-6.5s0-4.3,1-6.5c.8-2,1.6-3.5,2.9-4.9s2.8-2.4,4.7-3.1c1.8-.8,3.9-1.2,6.1-1.2s4.3.4,6.1,1.2c1.8.8,3.3,2,4.7,3.1s2.2,2.9,2.9,4.9,1,4.1,1,6.5-.4,4.3-1,6.5Z"/>
      <path class="st0" d="M154.5,39.5c-7.3-3.1-15.7-1.8-21.6,2.9v-21h-11.8v67.4h11.8v-26.5c0-4.9,1.4-13.6,11-13.6s11,7.3,11,13.6v26.5h11.8v-30.3c0-7.9-4.5-15.9-12.2-19.3h0v.2Z"/>
      <polyline class="st0" points="300.1 80 300.1 88.8 342.5 88.8 342.5 78.6 314.8 78.6 341 48.3 341 38.9 301.5 38.9 301.5 49.3 326.8 49.3 300.1 79.4"/>
      <polyline class="st0" points="351.4 80 351.4 88.8 393.8 88.8 393.8 78.6 366.1 78.6 392.2 48.3 392.2 38.9 352.8 38.9 352.8 49.3 378.1 49.3 351.4 79.4"/>
      <path class="st0" d="M276.5,38.9v27.3c0,1.4,0,3.1-.6,4.5-.4,1.4-1,2.9-2,4.3h0c-.8,1.4-2,2.4-3.3,3.1-1.4.8-3.1,1.2-5.1,1.2s-3.7-.4-5.1-1.2-2.6-2-3.3-3.1c-.8-1.4-1.4-2.8-2-4.3-.4-1.6-.6-3.1-.6-4.5v-27.3h-11.8v28.3c0,10.6,4.5,17.7,13.8,21,2.8,1,5.7,1.6,8.8,1.6s6.1-.6,8.8-1.6c11.2-4.3,13.8-13.9,13.8-21v-28.3h-11.8.4Z"/>
      <polygon class="st1" points="51 88.8 80.3 88.8 80.3 38.3 21.5 21.4 21.5 1 1.1 1 1.1 88.8 30.4 88.8 30.4 59.5 51 59.5 51 88.8"/>
    </g>
  </g>
</svg>