<?xml version="1.0" encoding="UTF-8"?>
<svg id="Layer_1" xmlns="http://www.w3.org/2000/svg" version="1.1" viewBox="0 0 352 87.4">
  <!-- Generator: Adobe Illustrator 29.8.1, SVG Export Plug-In . SVG Version: 2.1.1 Build 2)  -->
  <defs>
    <style>
      .st0 {
        fill: #010101;
      }

      .st1 {
        fill: #13b57a;
      }

      .st2 {
        fill: #055229;
      }
    </style>
  </defs>
  <path class="st0" d="M92.9,30.8h35.4v6.6h-14v37.2h-7.6v-37.2h-13.9v-6.6ZM126.8,42.9h6.5v6.1h.1c.2-.9.6-1.7,1.2-2.5s1.3-1.6,2.2-2.2c.8-.7,1.8-1.2,2.8-1.6,1-.4,2-.6,3.1-.6s1.4,0,1.7,0c.3,0,.6.1.9.1v6.7c-.5-.1-1-.2-1.5-.2s-1-.1-1.5-.1c-1.2,0-2.3.2-3.3.7s-1.9,1.2-2.7,2c-.8.9-1.4,2-1.9,3.4s-.7,2.9-.7,4.7v15.1h-7v-31.5ZM177.5,74.6h-6.9v-4.4h-.1c-.9,1.6-2.2,2.9-3.9,3.9s-3.4,1.5-5.2,1.5c-4.1,0-7.2-1-9-3.1-1.9-2-2.8-5.2-2.8-9.3v-20.1h7v19.4c0,2.8.5,4.8,1.6,5.9,1.1,1.2,2.6,1.8,4.5,1.8s2.7-.2,3.7-.7,1.8-1.1,2.4-1.8c.6-.8,1.1-1.7,1.3-2.7s.4-2.2.4-3.4v-18.4h7v31.7h0ZM189.4,64.5c.2,2,1,3.4,2.3,4.3,1.3.8,3,1.2,4.8,1.2s1.4,0,2.2-.2,1.6-.3,2.3-.6c.8-.3,1.3-.7,1.8-1.3s.7-1.3.6-2.2-.4-1.6-1-2.2-1.4-1-2.3-1.4c-.9-.4-2-.6-3.3-.9s-2.5-.5-3.7-.8-2.6-.6-3.8-1.1-2.3-.9-3.3-1.7c-.9-.7-1.8-1.6-2.3-2.7-.6-1.1-.9-2.4-.9-4s.4-3.2,1.3-4.3c.8-1.2,1.9-2.1,3.2-2.8s2.7-1.2,4.3-1.5c1.6-.3,3.1-.4,4.5-.4s3.2.2,4.7.5,2.9.9,4,1.7c1.2.8,2.2,1.8,3,3,.8,1.2,1.3,2.7,1.5,4.5h-7.3c-.4-1.7-1.1-2.8-2.3-3.4-1.2-.6-2.6-.9-4.1-.9s-1.1,0-1.8.1c-.7.1-1.3.2-1.9.5-.6.2-1.1.6-1.5,1s-.6,1-.6,1.7.3,1.5.9,2,1.3.9,2.3,1.3c.9.4,2,.6,3.3.9s2.5.5,3.8.8,2.5.6,3.7,1.1,2.3.9,3.3,1.7c.9.7,1.8,1.6,2.3,2.6s.9,2.4.9,3.9-.4,3.4-1.3,4.8c-.9,1.3-2,2.4-3.3,3.2-1.3.8-2.9,1.4-4.6,1.8-1.7.4-3.3.6-5,.6s-3.9-.2-5.5-.7-3.2-1.2-4.4-2c-1.2-.9-2.2-2-2.9-3.4-.7-1.3-1.1-3-1.2-4.9h7.1c0,0,0,0,0,0ZM212.5,42.9h5.3v-9.6h7v9.5h6.3v5.2h-6.3v16.9c0,.8,0,1.3.1,1.9,0,.5.2,1,.4,1.3.2.4.6.6,1,.8.5.2,1.1.3,1.9.3s1,0,1.5,0,1-.1,1.5-.2v5.4c-.8.1-1.5.2-2.3.2-.8.1-1.5.1-2.3.1-1.9,0-3.3-.2-4.4-.5s-2-.9-2.6-1.5c-.6-.7-1.1-1.5-1.3-2.5s-.4-2.2-.4-3.5v-18.7h-5.3v-5.3h0ZM236,42.9h6.6v4.3h.1c1-1.9,2.3-3.2,4.1-4,1.8-.8,3.6-1.2,5.7-1.2s4.7.4,6.5,1.3c1.9.9,3.4,2,4.6,3.6,1.2,1.5,2.2,3.3,2.7,5.4s.9,4.3.9,6.5-.3,4.2-.8,6.2c-.6,2-1.4,3.8-2.5,5.3s-2.5,2.7-4.3,3.7-3.7,1.4-6.1,1.4-2-.1-3-.3-2-.5-2.9-.9-1.8-.9-2.6-1.6c-.8-.6-1.5-1.4-2-2.2h-.1v15.8h-7v-43.4h0ZM260.5,58.8c0-1.4-.2-2.8-.6-4.1-.4-1.3-.9-2.5-1.7-3.6s-1.7-1.9-2.7-2.5c-1.1-.6-2.4-.9-3.8-.9-2.9,0-5.1,1-6.7,3-1.5,2-2.2,4.8-2.2,8.2s.2,3.1.6,4.4.9,2.5,1.8,3.5c.8,1,1.7,1.8,2.8,2.3s2.3.9,3.8.9,2.9-.4,4-1c1.1-.6,2-1.5,2.7-2.5.7-1.1,1.2-2.2,1.5-3.6.3-1.4.5-2.7.5-4.1ZM272.8,30.8h7v6.6h-7v-6.6ZM272.8,42.9h7v31.7h-7v-31.7ZM286.1,30.8h7v43.8h-7V30.8ZM314.4,75.5c-2.5,0-4.8-.4-6.8-1.3-2-.9-3.6-2-5-3.4-1.3-1.5-2.4-3.3-3.1-5.3-.7-2-1.1-4.3-1.1-6.7s.4-4.6,1.1-6.7c.7-2,1.8-3.8,3.1-5.3,1.3-1.5,3-2.6,5-3.4,2-.8,4.3-1.3,6.8-1.3s4.8.4,6.8,1.3c2,.8,3.6,2,5,3.4,1.3,1.5,2.4,3.3,3.1,5.3.7,2,1.1,4.3,1.1,6.7s-.4,4.7-1.1,6.7-1.8,3.8-3.1,5.3c-1.3,1.5-3,2.6-5,3.4-2,.8-4.2,1.3-6.8,1.3ZM314.4,70c1.5,0,2.9-.4,4-1,1.2-.6,2-1.5,2.8-2.6.8-1.1,1.3-2.3,1.6-3.6.4-1.3.5-2.7.5-4.1s-.2-2.7-.5-4-.9-2.5-1.6-3.6c-.8-1.1-1.7-1.9-2.8-2.5-1.2-.6-2.5-1-4-1s-2.9.4-4,1c-1.2.6-2,1.5-2.8,2.5-.8,1.1-1.3,2.2-1.6,3.6-.4,1.3-.5,2.7-.5,4s.2,2.7.5,4.1.9,2.5,1.6,3.6,1.7,1.9,2.8,2.6c1.2.7,2.5,1,4,1ZM332.5,42.9h5.3v-9.6h7v9.5h6.3v5.2h-6.3v16.9c0,.8,0,1.3.1,1.9,0,.5.2,1,.4,1.3.2.4.6.6,1,.8.5.2,1.1.3,1.9.3s1,0,1.5,0,1-.1,1.5-.2v5.4c-.8.1-1.5.2-2.3.2-.8.1-1.5.1-2.3.1-1.9,0-3.3-.2-4.4-.5s-2-.9-2.6-1.5c-.6-.7-1.1-1.5-1.3-2.5s-.4-2.2-.4-3.5v-18.7h-5.3v-5.3h0Z"/>
  <path class="st1" d="M84.7,30.8h-32.1L42.8.4l-9.9,30.5H.8c0,0,25.9,18.8,25.9,18.8l-9.9,30.5,25.9-18.9,25.9,18.9-9.9-30.5,25.9-18.8Z"/>
  <path class="st2" d="M61,56.5l-2.2-6.9-16,11.6,18.2-4.7Z"/>
</svg>