<?xml version="1.0" encoding="UTF-8"?>
<svg id="Layer_1" xmlns="http://www.w3.org/2000/svg" version="1.1" viewBox="0 0 543.2 90">
  <!-- Generator: Adobe Illustrator 29.8.1, SVG Export Plug-In . SVG Version: 2.1.1 Build 2)  -->
  <defs>
    <style>
      .st0 {
        fill: #020202;
      }
    </style>
  </defs>
  <path id="Vector" class="st0" d="M62.5,39.3l-23-23c-.6-.6-1.5-1.2-2.7-1.5h-1.5c-.6,0-.9.6-1.2.9l-18.8,19.1c-.6.9-1.2,1.8-1.8,2.7-.3.9-.6,2.1-.3,3.3v16.3c0,2.1.9,4.2,2.4,6.1,1.5,1.5,3.6,2.4,5.8,2.7h26.9c.9,0,1.8.9,2.4,1.5l12.1,12.4c.6.6.9.9,1.8.9h1.8c.6,0,1.2-.6,1.5-1.2s.6-1.2.3-1.8v-11.8h9.7c1.2,0,2.1,0,3.3-.6.9,0,1.8-1.2,2.7-1.8.9-.9,1.2-1.8,1.8-2.7.3-.9.6-2.1.6-3.3v-15.1h-17.3c-1.2,0-2.4,0-3.6-.6s-2.1-1.2-3-2.1h0v-.3Z"/>
  <path id="Vector_2" class="st0" d="M97.3,29.9L70.3,2.7c-1.8-1.5-4.2-2.1-6.7-1.8h-27.5c-2.7,0-5.1,1.2-7.3,3L2.2,30.2c-.3,0-.6.6-.9,1.2,0,.6-.3.9-.3,1.5v1.2s.6.9.9,1.2c.3,0,.6.6,1.2.6h1.2c1.2,0,2.4-.6,3-1.5,3-3.3,22.1-22.1,22.7-22.7,1.8-1.8,4.2-2.7,7-2.7s2.4,0,3.6.9c1.2.6,2.1,1.2,3,2.1l23.3,23.3c.3,0,.6.6,1.2.6h27.2c.6,0,1.2,0,1.8-.6.6,0,.9-.9,1.2-1.5v-2.1c0-.6-.6-1.5-1.2-1.8h0Z"/>
  <path id="Vector_3" class="st0" d="M143,36.6h-21.8v-20.6h-8.8v50h8.8v-20.9h21.8v20.9h8.5V16h-8.5v20.6Z"/>
  <path id="Vector_4" class="st0" d="M189,33.3c-2.7-2.7-6.4-4.5-10.3-5.4-3.9-.6-7.9,0-11.5,1.5-3.6,1.8-6.7,4.5-8.5,7.9-1.8,3.3-2.7,7.6-2.4,11.5.3,3.9,1.8,7.6,4.5,10.6,2.7,3,6.1,5.1,10,6.1,3.9.9,7.9.9,11.5-.6,3.6-1.5,7-3.9,9.1-7.3,2.4-3.6,3.6-8.2,3.3-12.7-.3-4.5-2.4-8.8-5.4-11.8h-.3v.3ZM175.1,58.4c-2.1,0-4.5-.6-6.4-2.1-1.8-1.2-3.3-3-3.9-5.1s-.9-4.5,0-6.7c.6-2.1,1.8-4.2,3.3-5.8,1.8-1.5,3.9-2.4,6.4-2.4s4.5,0,6.7,1.5c1.8,1.2,3.3,3,4.2,5.1.9,2.1,1.2,4.5.6,6.7-.6,2.4-1.8,4.8-3.6,6.4-1.8,1.5-4.5,2.4-7,2.7h0l-.3-.3Z"/>
  <path id="Vector_5" class="st0" d="M251.7,32.1c-1.2-1.5-3-2.4-4.8-3.3-2.1-.9-4.2-1.2-6.7-1.2s-5.1.6-7.3,1.8c-1.8.9-3.3,2.1-4.5,3.9-.9-1.5-2.4-3-3.9-3.9-2.4-1.2-4.8-1.8-7.6-1.8s-4.2.6-6.1,1.5c-1.2.6-2.1,1.5-3.3,2.4v-3h-8.8v37.5h8.5v-20.9c0-2.7.6-5.1,2.1-7.3.6-.9,1.5-1.5,2.7-1.8.9,0,2.1-.6,3-.6h3c.9,0,1.8.9,2.4,1.5,1.2,1.8,1.8,3.9,1.8,6.1v22.4h8.8v-21.2c0-2.4.6-5.1,2.1-7,.6-.9,1.5-1.2,2.7-1.8.9,0,2.1-.6,3-.6h3c.9,0,1.8.9,2.4,1.8,1.2,1.8,1.8,3.9,1.8,6.4v21.8h8.8v-22.1c0-2.1-.3-4.5-.9-6.7-.6-1.8-1.5-3.6-2.7-4.8h.3v.9Z"/>
  <path id="Vector_6" class="st0" d="M289.2,53.3c-.9,1.5-2.4,3-3.9,3.9-1.8.9-3.9,1.5-6.1,1.5s-5.4-.9-7.9-2.4c-1.8-1.5-3-3.6-3.6-5.8h30.3v-3.6c0-3.9-1.2-7.9-3.3-11.2-2.1-3.3-5.4-5.8-9.1-7-3.9-1.2-7.9-1.5-11.8,0s-7.3,3.3-10,6.4c-2.7,3.6-4.5,7.9-4.2,12.4,0,3.3.9,6.7,2.4,9.7,1.8,3,4.2,5.4,7,7,3,1.5,6.4,2.4,9.7,2.4s6.7-.6,9.7-1.8c3.3-1.8,6.1-4.2,7.9-7.3v-.6c.3,0-7-4.2-7-4.2v.6h0ZM268.3,43c.6-2.1,1.8-3.9,3.6-5.1,2.1-1.5,4.5-2.4,7-2.4s4.8.6,7,2.1c1.8,1.5,2.7,3.3,3.3,5.4h-20.9Z"/>
  <path id="Vector_7" class="st0" d="M317.1,15.7l-19.4,50.3h9.1l3.9-10.3h20.9l3.9,10.3h9.1l-19.4-50.3h-8.2,0ZM328.6,47.2h-14.8l7.3-19.7,7.6,19.7Z"/>
  <path id="Vector_8" class="st0" d="M374.3,32.4c-1.2-1.2-2.7-2.1-4.2-3-2.4-.9-4.8-1.5-7.3-1.5s-5.1.6-7.3,1.5c-4.2,1.8-7.9,5.4-9.7,10-1.8,4.5-2.1,9.4-.6,13.9s4.5,8.5,8.8,10.9c2.4,1.5,5.1,2.1,8.2,2.4,2.7,0,5.8,0,8.2-1.5,1.5-.9,3-1.8,4.5-3v4.2h8.5V16h-8.5v16.7h-.6v-.3ZM363.4,58.7c-2.4,0-4.5-.6-6.4-2.1-1.8-1.2-3.3-3.3-3.9-5.4-.9-2.1-.9-4.5-.3-7,.6-2.4,1.8-4.2,3.6-6.1,1.8-1.5,3.9-2.4,6.4-2.7,2.4,0,4.5,0,6.7,1.5,2.1,1.5,3.6,3,4.5,5.1.9,2.1,1.2,4.5.6,7-.3,2.4-1.8,4.8-3.6,6.7-1.8,1.8-4.5,2.7-7,2.7h-.6v.3Z"/>
  <path id="Vector_9" class="st0" d="M405.8,54.2l-10-25.7h-9.1l14.8,37.5h7.9l15.4-37.5h-9.1l-10.3,25.7h.3Z"/>
  <path id="Vector_10" class="st0" d="M437.6,28.4h-8.8v37.5h8.8V28.4Z"/>
  <path id="Vector_11" class="st0" d="M433.3,12.4c-1.2,0-2.4,0-3.3.9-.9.6-1.8,1.8-2.1,2.7-.6,1.2-.6,2.4-.3,3.6,0,1.2.9,2.4,1.8,3,.9.9,2.1,1.2,3.3,1.5,1.2,0,2.4,0,3.6-.9.9-.6,1.8-1.5,2.4-2.7.6-1.2.6-2.4.3-3.6,0-1.2-.9-2.4-2.1-3.3-.9-.9-2.4-1.2-3.6-1.2h0Z"/>
  <path id="Vector_12" class="st0" d="M468.7,46c-4.5-3-10-3-14.8-4.8-.6,0-.9,0-1.2-.6-.3,0-.6-.6-.9-1.2v-1.5c0-.6,0-.9.6-1.2.9-.9,1.8-1.5,2.7-1.8h3.3c1.2,0,2.7.6,3.9,1.2,1.2.6,2.1,1.5,3,2.7v.6c.3,0,7.9-4.2,7.9-4.2l-.6-.6c-1.8-2.1-3.9-3.9-6.4-5.1-2.4-1.2-5.1-1.8-8.2-1.8s-5.8,0-8.5,1.5c-2.7,1.5-4.5,3.6-6.1,6.1-.6,1.2-.9,2.7-.6,4.2,0,1.5.3,2.7,1.2,4.2,1.5,2.4,3.9,4.2,6.7,5.1,3,.9,6.1,1.8,9.4,2.4,1.2,0,2.4.9,3.6,1.5.6,0,.9,1.2.9,1.8s0,1.2-.6,1.8c-1.5,2.7-5.1,3-7.6,2.4-1.5,0-3-.9-4.2-1.8-1.2-.9-2.4-1.8-3-3.3v-.6c-.3,0-7.9,4.2-7.9,4.2v.6c1.8,2.7,4.2,5.1,7.3,6.4,3,1.2,6.4,1.8,9.7,1.8s7-.9,9.7-2.7c1.5-.9,2.7-2.1,3.6-3.6.9-1.5,1.5-3,1.8-4.8,0-1.8,0-3.6-.9-5.4-.9-1.8-2.1-3-3.6-4.2v.9h-.3Z"/>
  <path id="Vector_13" class="st0" d="M509.3,33.3c-2.7-2.7-6.4-4.5-10.3-5.4-3.9-.6-7.9,0-11.5,1.5-3.6,1.8-6.7,4.5-8.5,7.9-1.8,3.3-2.7,7.6-2.4,11.5.3,3.9,1.8,7.6,4.5,10.6,2.7,3,6.1,5.1,10,6.1,3.9.9,7.9.9,11.5-.6,3.6-1.5,7-3.9,9.1-7.3,2.4-3.6,3.6-8.2,3.3-12.7-.3-4.5-2.4-8.8-5.4-11.8h-.3v.3ZM495.7,58.4c-2.1,0-4.5-.6-6.4-2.1-1.8-1.2-3.3-3-3.9-5.1-.6-2.1-.9-4.5,0-6.7.6-2.1,1.8-4.2,3.3-5.8,1.8-1.5,3.9-2.4,6.4-2.4s4.5,0,6.7,1.5c1.8,1.2,3.3,3,4.2,5.1.9,2.1,1.2,4.5.6,6.7-.6,2.4-1.8,4.8-3.6,6.4s-4.5,2.4-7,2.7h-.3v-.3Z"/>
  <path id="Vector_14" class="st0" d="M543.2,29.3c-2.1-1.2-4.2-1.5-6.7-1.5s-4.5.6-6.4,1.8c-.9.6-1.8,1.5-2.7,2.7v-3.9h-8.5v37.5h8.5v-21.2c0-1.5,0-2.7.6-3.9.6-1.2,1.5-2.4,2.7-3.3,1.2-.6,2.7-1.2,4.2-.9,1.5,0,3,0,4.2.9l.6.6,3.3-8.2h-.6l.6-.6Z"/>
</svg>