<?xml version="1.0" encoding="UTF-8"?>
<svg id="Layer_1" xmlns="http://www.w3.org/2000/svg" version="1.1" viewBox="0 0 178.6 90">
  <!-- Generator: Adobe Illustrator 29.8.1, SVG Export Plug-In . SVG Version: 2.1.1 Build 2)  -->
  <defs>
    <style>
      .st0 {
        fill: #016087;
      }
    </style>
  </defs>
  <path class="st0" d="M40.9,29.4c5.2-2.6,8.1-7.8,8.1-13.3v-.3c0-3.9-1.3-7.8-4.2-10.4C40.6,1.5,34.7-.5,28.9-.2H.3s0,61-.3,61.7h29.2c14,0,23-5.5,23-16.9s-4.2-12.7-11.4-15.3ZM13.3,11.5h13.6c5.5,0,8.8,2.6,8.8,6.5s-3.9,6.5-9.7,6.5h-12.7v-13ZM38.9,42.7c0,4.2-3.6,6.5-9.4,6.5l-16.2.3v-13.6h15.6c7.1,0,10.1,2.3,10.1,6.5v.3Z"/>
  <path class="st0" d="M99,29.4c5.2-2.6,8.1-7.8,8.1-13.3v-.3c0-3.9-1.3-7.8-4.2-10.4-4.2-3.9-10.1-5.8-15.9-5.5h-28.9v61.7h29.2c14,0,23-5.5,23-16.9s-4.2-12.7-11.4-15.3ZM71.4,11.5h13.6c5.5,0,8.8,2.6,8.8,6.5s-3.9,6.5-9.7,6.5h-12.7v-13ZM97,42.7c0,4.2-3.6,6.5-9.4,6.5l-16.2.3v-13.6h15.6c7.1,0,10.1,2.3,10.1,6.5v.3Z"/>
  <path class="st0" d="M156.8,29.4c5.2-2.6,8.1-7.8,8.1-13.3v-.3c0-3.9-1.3-7.8-4.2-10.4-4.2-3.9-10.1-5.8-15.9-5.5h-28.6s0,61-.3,61.7h29.2c14,0,23-5.5,23-16.9s-4.2-12.7-11.4-15.3ZM129.5,11.5h13.3c5.5,0,8.8,2.6,8.8,6.5s-3.9,6.5-9.7,6.5h-12.3v-13ZM155.1,42.7c0,4.2-3.9,6.5-9.7,6.5l-15.9.3v-13.6h15.6c6.8,0,10.1,2.3,10.1,6.5v.3Z"/>
  <path class="st0" d="M0,87.1l1-1.3c1.3,1.3,3.2,2.3,5.5,2.3s3.6-1,3.6-2.6-.6-2.3-3.9-2.9-5.2-1.9-5.2-4.2c.3-2.6,2.3-4.2,4.9-4.2h.3c1.9,0,3.9.6,5.5,1.9l-1,1.3c-1.6-1.3-3.2-1.9-4.9-1.9s-3.2,1-3.2,2.6.6,2.3,4.2,2.9c3.6.6,4.9,1.9,4.9,4.2s-2.3,4.2-5.2,4.2c-2.6,0-4.9-.6-6.5-2.3Z"/>
  <path class="st0" d="M14.9,86.5v-6.8h-1.6v-1.3h1.6v-3.2h1.6v3.2h3.6v1.3h-3.6v6.5c0,1.3.6,1.9,1.9,1.9s1.3,0,1.6-.3v1.3c-.6.3-1.3.6-1.9.6-1.6.3-2.9-1-3.2-2.6v-.6Z"/>
  <path class="st0" d="M30.5,79.4c-1-1-2.3-1.3-3.6-1.3s-2.9.3-4.2,1l.6,1.9c1.3-.6,2.3-1,3.6-1,1.9,0,3.2,1,3.2,2.9v.3c-1.3-.6-2.3-.6-3.6-.6-2.9,0-4.9,1.3-4.9,3.6s1.9,3.2,4.2,3.2c1.6.3,3.2-.6,4.2-1.6v1.6h1.6v-6.8c0-1.3-.6-2.3-1.3-3.2ZM30.2,85.2c-.3,1.6-1.9,3.2-3.6,2.9-1.6,0-2.9-1-2.9-2.3s1-2.3,3.2-2.3c1,.3,2.3.3,3.2.6v1Z"/>
  <path class="st0" d="M34.7,78.1h1.6v2.9c.6-1.9,2.6-3.2,4.5-3.2v1.9c-2.6,0-4.5,1.9-4.5,4.5v5.2h-1.6v-11.4Z"/>
  <path class="st0" d="M43.5,86.5v-6.8h-1.6v-1.3h1.6v-3.2h1.9v3.2h3.6v1.3h-3.6v6.5c0,1.3.6,1.9,1.9,1.9s1.3,0,1.6-.3v1.3c-.6.3-1.3.6-1.9.6-1.6.3-2.9-.6-3.2-2.3q-.3-.6-.3-1Z"/>
  <polygon class="st0" points="56.5 74.2 58.4 74.2 63 86.8 67.2 74.2 68.5 74.2 72.7 86.8 77.2 74.2 79.2 74.2 73.7 89.4 72.1 89.4 67.8 77.1 63.6 89.4 62 89.4 56.5 74.2"/>
  <rect class="st0" x="81.1" y="73.8" width="1.9" height="1.9"/>
  <rect class="st0" x="81.1" y="78.1" width="1.6" height="11"/>
  <path class="st0" d="M87,86.5v-6.8h-1.6v-1.3h1.6v-3.2h1.6v3.2h3.6v1.3h-3.6v6.5c0,1.3.6,1.9,1.9,1.9s1.3,0,1.6-.3v1.3c-.6.3-1.3.6-1.9.6-1.6.3-2.9-1-3.2-2.6-.3-.3-.3-.6,0-.6h0Z"/>
  <path class="st0" d="M94.4,73.5h1.6v6.5c.6-1.3,2.3-2.3,3.9-2.3s4.2,1.6,4.5,3.9v7.5h-1.6v-6.5c0-1.6-1-3.2-2.6-3.2h-.6c-1.9,0-3.2,1.3-3.6,2.9v6.8h-1.6v-15.6Z"/>
  <polygon class="st0" points="117.8 75.8 112.6 75.8 112.6 74.2 125 74.2 125 75.8 119.8 75.8 119.8 89.4 118.1 89.4 117.8 75.8"/>
  <path class="st0" d="M127.2,78.1h1.6v2.9c.6-1.9,2.6-3.2,4.5-3.2v1.9c-2.6,0-4.5,1.9-4.5,4.5v5.2h-1.6v-11.4Z"/>
  <path class="st0" d="M135.3,85.2v-7.1h1.6v6.5c0,1.6,1,3.2,2.9,3.2h.3c1.9,0,3.2-1.3,3.6-2.9v-6.8h1.6v11h-1.6v-1.9c-1,1.3-2.6,2.3-4.2,2.3-2.3.3-4.2-1.6-4.5-3.9.3,0,.3-.3.3-.3Z"/>
  <path class="st0" d="M147.3,87.8l1-1.3c1.3,1,2.6,1.3,3.9,1.3s2.3-.6,2.3-1.6-1.3-1.6-2.9-1.9-3.9-1-3.9-3.2,1.6-3.2,3.9-3.2,2.9.3,4.2,1.3l-.6,1.3c-1-.6-1.9-1-3.2-1s-2.3.6-2.3,1.6,1.3,1.3,2.9,1.9,3.6,1.3,3.6,3.2-1.6,3.2-3.9,3.2-3.2-.6-4.9-1.6h0Z"/>
  <path class="st0" d="M159.4,86.5v-6.8h-1.6v-1.3h1.6v-3.2h1.6v3.2h3.6v1.3h-3.6v6.5c0,1.3.6,1.9,1.9,1.9s1.3,0,1.6-.3v1.3c-.6.3-1.3.6-1.9.6-1.6.3-2.9-1-3.2-2.6v-.6h0Z"/>
  <path class="st0" d="M167.1,88.4l.6-.6c.3.3,1,.6,1.6.6s.6-.3.6-.6-.3-.3-1-.6-1.6-.6-1.6-1.6.6-1.6,1.6-1.6h0c.6,0,1.3.3,1.9.6l-.6,1c-.3-.3-1-.6-1.3-.6s-.6.3-.6.3c0,.3.3.3,1,.6s1.6.6,1.6,1.6-.6,1.6-1.9,1.6c-.6.3-1.6,0-1.9-.6Z"/>
  <polygon class="st0" points="172 84.2 173.3 84.2 174.6 86.5 175.9 84.2 177.2 84.2 177.2 89.4 176.2 89.4 176.2 86.2 174.6 88.4 173.3 86.2 173.3 89.4 172 89.4 172 84.2"/>
</svg>